<?xml version="1.0" ?><!DOCTYPE svg  PUBLIC '-//W3C//DTD SVG 1.1//EN'  'http://www.w3.org/Graphics/SVG/1.1/DTD/svg11.dtd'><svg height="32px" style="enable-background:new 0 0 32 32;" version="1.1" viewBox="0 0 32 32" width="32px" xml:space="preserve" xmlns="http://www.w3.org/2000/svg" xmlns:xlink="http://www.w3.org/1999/xlink"><g id="_x31__speaker_loud"><g><polygon points="5.216,11.582 5.216,20.419 10.005,20.419 17.195,23.783 17.195,20.419 17.195,11.582 17.195,8.218 10.005,11.582       "/><path d="M19.926,11.582c0.459,3.233,0.459,6.516,0,9.749c0.621,0.089,1.242,0.177,1.863,0.266c0.484-3.41,0.484-6.871,0-10.28    C21.168,11.405,20.547,11.493,19.926,11.582z"/><path d="M26.148,7.923c-0.619,0.099-1.24,0.196-1.859,0.295c0.816,5.156,0.816,10.409,0,15.565    c0.619,0.098,1.24,0.196,1.859,0.294C26.996,18.727,26.996,13.274,26.148,7.923z"/></g></g></svg>